<svg width="48" height="48" viewBox="0 0 48 48" fill="none" xmlns="http://www.w3.org/2000/svg">
<g id="device_thermostat">
<mask id="mask0_426_1649" style="mask-type:alpha" maskUnits="userSpaceOnUse" x="0" y="0" width="48" height="48">
<rect id="Bounding box" width="48" height="48" fill="#D9D9D9"/>
</mask>
<g mask="url(#mask0_426_1649)">
<path id="device_thermostat_2" d="M24 44C21.2333 44 18.875 43.025 16.925 41.075C14.975 39.125 14 36.7667 14 34C14 32.3 14.3833 30.7 15.15 29.2C15.9167 27.7 17.05 26.5833 18.55 25.85V9.45C18.55 7.9361 19.0799 6.6493 20.1396 5.5896C21.1993 4.52987 22.4861 4 24 4C25.5139 4 26.8007 4.52987 27.8604 5.5896C28.9201 6.6493 29.45 7.9361 29.45 9.45V25.85C30.95 26.5833 32.0833 27.7 32.85 29.2C33.6167 30.7 34 32.3 34 34C34 36.7667 33.025 39.125 31.075 41.075C29.125 43.025 26.7667 44 24 44ZM21.55 22.25H26.45V19.6H24V17.65H26.45V13.3H24V11.375H26.45V9.45C26.45 8.75583 26.2146 8.17397 25.7439 7.7044C25.2731 7.2348 24.6898 7 23.9939 7C23.298 7 22.7167 7.2348 22.25 7.7044C21.7833 8.17397 21.55 8.75583 21.55 9.45V22.25Z" fill="#1C1B1F"/>
</g>
</g>
</svg>
