<svg width="48" height="48" viewBox="0 0 48 48" fill="none" xmlns="http://www.w3.org/2000/svg">
<g id="hearing">
<mask id="mask0_426_1640" style="mask-type:alpha" maskUnits="userSpaceOnUse" x="0" y="0" width="48" height="48">
<rect id="Bounding box" width="48" height="48" fill="#D9D9D9"/>
</mask>
<g mask="url(#mask0_426_1640)">
<path id="hearing_2" d="M34.4 43.9501C32.5 43.9501 30.85 43.4334 29.45 42.4001C28.05 41.3668 27.0167 40.0001 26.35 38.3001C25.6833 36.6001 25.025 35.2751 24.375 34.3251C23.725 33.3751 22.5 32.1834 20.7 30.7501C18.5 28.9834 16.9167 27.1001 15.95 25.1001C14.9833 23.1001 14.5 20.6668 14.5 17.8001C14.5 13.8001 15.7667 10.5251 18.3 7.9751C20.8333 5.4251 24.1 4.1501 28.1 4.1501C32.0333 4.1501 35.2917 5.3751 37.875 7.8251C40.4583 10.2751 41.8333 13.4001 42 17.2001H39C38.8333 14.2668 37.7417 11.8584 35.725 9.9751C33.7083 8.09176 31.1667 7.1501 28.1 7.1501C25.1 7.1501 22.5833 8.1751 20.55 10.2251C18.5167 12.2751 17.5 14.8001 17.5 17.8001C17.5 20.2001 17.9667 22.2751 18.9 24.0251C19.8333 25.7751 21.3833 27.4668 23.55 29.1001C24.85 30.0668 25.8917 31.1168 26.675 32.2501C27.4583 33.3834 28.2 34.7834 28.9 36.4501C29.4667 37.8501 30.2083 38.9501 31.125 39.7501C32.0417 40.5501 33.1333 40.9501 34.4 40.9501C35.5667 40.9501 36.575 40.5501 37.425 39.7501C38.275 38.9501 38.7833 37.9668 38.95 36.8001H41.95C41.7833 38.8001 40.9833 40.4918 39.55 41.8751C38.1167 43.2584 36.4 43.9501 34.4 43.9501ZM11.95 32.9001C10.05 30.8001 8.58333 28.4418 7.55 25.8251C6.51667 23.2084 6 20.4668 6 17.6001C6 14.7668 6.49167 12.0251 7.475 9.3751C8.45833 6.7251 9.95 4.38343 11.95 2.3501L14.2 4.3501C12.4667 6.11676 11.1667 8.14176 10.3 10.4251C9.43333 12.7084 9 15.1001 9 17.6001C9 20.0668 9.44167 22.4418 10.325 24.7251C11.2083 27.0084 12.5 29.0501 14.2 30.8501L11.95 32.9001ZM28.1 22.4501C26.8 22.4501 25.7 22.0001 24.8 21.1001C23.9 20.2001 23.45 19.1001 23.45 17.8001C23.45 16.5001 23.9 15.3834 24.8 14.4501C25.7 13.5168 26.8 13.0501 28.1 13.0501C29.4 13.0501 30.5167 13.5168 31.45 14.4501C32.3833 15.3834 32.85 16.5001 32.85 17.8001C32.85 19.1001 32.3833 20.2001 31.45 21.1001C30.5167 22.0001 29.4 22.4501 28.1 22.4501Z" fill="#1C1B1F"/>
</g>
</g>
</svg>
