<svg width="48" height="48" viewBox="0 0 24 24" fill="current" xmlns="http://www.w3.org/2000/svg">
<g id="meeting_room">
<mask id="mask0_965_837" style="mask-type:alpha" maskUnits="userSpaceOnUse" x="0" y="0" width="24" height="24">
<rect id="Bounding box" width="24" height="24" fill="#D9D9D9"/>
</mask>
<g mask="url(#mask0_965_837)">
<path id="meeting_room_2" d="M3 21V19H5V3H15V4H19V19H21V21H17V6H15V21H3ZM11 13C11.2833 13 11.5208 12.9042 11.7125 12.7125C11.9042 12.5208 12 12.2833 12 12C12 11.7167 11.9042 11.4792 11.7125 11.2875C11.5208 11.0958 11.2833 11 11 11C10.7167 11 10.4792 11.0958 10.2875 11.2875C10.0958 11.4792 10 11.7167 10 12C10 12.2833 10.0958 12.5208 10.2875 12.7125C10.4792 12.9042 10.7167 13 11 13ZM7 19H13V5H7V19Z" fill="#E15637"/>
</g>
</g>
</svg>
