<svg width="48" height="48" viewBox="0 0 48 48" fill="none" xmlns="http://www.w3.org/2000/svg">
<g id="mop">
<mask id="mask0_426_1624" style="mask-type:alpha" maskUnits="userSpaceOnUse" x="0" y="0" width="48" height="48">
<rect id="Bounding box" width="48" height="48" fill="#D9D9D9"/>
</mask>
<g mask="url(#mask0_426_1624)">
<path id="mop_2" d="M20.9996 22H26.9996V8C26.9996 7.16667 26.7121 6.45833 26.1371 5.875C25.5621 5.29167 24.8496 5 23.9996 5C23.1496 5 22.4371 5.2875 21.8621 5.8625C21.2871 6.4375 20.9996 7.15 20.9996 8V22ZM8.9996 31H38.9996V25H8.9996V31ZM5.7996 43H12.4996V38.5C12.4996 38.075 12.6442 37.7188 12.9333 37.4313C13.2225 37.1438 13.5809 37 14.0083 37C14.4358 37 14.7913 37.1438 15.0746 37.4313C15.3579 37.7188 15.4996 38.075 15.4996 38.5V43H22.4996V38.5C22.4996 38.075 22.6442 37.7188 22.9333 37.4313C23.2225 37.1438 23.5809 37 24.0083 37C24.4358 37 24.7913 37.1438 25.0746 37.4313C25.3579 37.7188 25.4996 38.075 25.4996 38.5V43H32.4996V38.5C32.4996 38.075 32.6442 37.7188 32.9333 37.4313C33.2225 37.1438 33.5809 37 34.0083 37C34.4358 37 34.7913 37.1438 35.0746 37.4313C35.3579 37.7188 35.4996 38.075 35.4996 38.5V43H42.1996L39.6996 33H8.2996L5.7996 43ZM40.8996 46H7.0996C5.7996 46 4.7496 45.4833 3.9496 44.45C3.1496 43.4167 2.91626 42.2667 3.2496 41L5.9996 30V26C5.9996 24.9 6.39126 23.9583 7.1746 23.175C7.95793 22.3917 8.8996 22 9.9996 22H17.9996V8C17.9996 6.33333 18.5829 4.91667 19.7496 3.75C20.9163 2.58333 22.3329 2 23.9996 2C25.6663 2 27.0829 2.58333 28.2496 3.75C29.4163 4.91667 29.9996 6.33333 29.9996 8V22H37.9996C39.0996 22 40.0413 22.3917 40.8246 23.175C41.6079 23.9583 41.9996 24.9 41.9996 26V30L44.7496 41C45.0829 42.2667 44.8496 43.4167 44.0496 44.45C43.2496 45.4833 42.1996 46 40.8996 46Z" fill="#1C1B1F"/>
</g>
</g>
</svg>
