<svg width="50" height="50" viewBox="0 0 50 50" fill="none" xmlns="http://www.w3.org/2000/svg">
<g id="Remove red eye" clip-path="url(#clip0_32_499)">
<path id="Vector" d="M25.0002 9.375C14.5835 9.375 5.68766 15.8542 2.0835 25C5.68766 34.1458 14.5835 40.625 25.0002 40.625C35.4168 40.625 44.3127 34.1458 47.9168 25C44.3127 15.8542 35.4168 9.375 25.0002 9.375ZM25.0002 35.4167C19.2502 35.4167 14.5835 30.75 14.5835 25C14.5835 19.25 19.2502 14.5833 25.0002 14.5833C30.7502 14.5833 35.4168 19.25 35.4168 25C35.4168 30.75 30.7502 35.4167 25.0002 35.4167ZM25.0002 18.75C21.5418 18.75 18.7502 21.5417 18.7502 25C18.7502 28.4583 21.5418 31.25 25.0002 31.25C28.4585 31.25 31.2502 28.4583 31.2502 25C31.2502 21.5417 28.4585 18.75 25.0002 18.75Z" fill="black" fill-opacity="0.8"/>
</g>
<defs>
<clipPath id="clip0_32_499">
<rect width="50" height="50" fill="white"/>
</clipPath>
</defs>
</svg>
