<svg width="48" height="48" viewBox="0 0 48 48" fill="none" xmlns="http://www.w3.org/2000/svg">
<g id="visibility">
<mask id="mask0_426_1616" style="mask-type:alpha" maskUnits="userSpaceOnUse" x="0" y="0" width="48" height="48">
<rect id="Bounding box" width="48" height="48" fill="#D9D9D9"/>
</mask>
<g mask="url(#mask0_426_1616)">
<path id="visibility_2" d="M24.0059 31.5C26.3686 31.5 28.375 30.673 30.025 29.0191C31.675 27.3652 32.5 25.3569 32.5 22.9941C32.5 20.6314 31.673 18.625 30.0191 16.975C28.3652 15.325 26.3569 14.5 23.9941 14.5C21.6314 14.5 19.625 15.327 17.975 16.9809C16.325 18.6348 15.5 20.6431 15.5 23.0059C15.5 25.3686 16.327 27.375 17.9809 29.025C19.6348 30.675 21.6431 31.5 24.0059 31.5ZM23.9883 28.6C22.4294 28.6 21.1083 28.0544 20.025 26.9633C18.9417 25.8721 18.4 24.5471 18.4 22.9883C18.4 21.4294 18.9456 20.1083 20.0367 19.025C21.1279 17.9417 22.4529 17.4 24.0117 17.4C25.5706 17.4 26.8917 17.9456 27.975 19.0367C29.0583 20.1279 29.6 21.4529 29.6 23.0117C29.6 24.5706 29.0544 25.8917 27.9633 26.975C26.8721 28.0583 25.5471 28.6 23.9883 28.6ZM24 38C19.1333 38 14.7333 36.6167 10.8 33.85C6.86667 31.0833 3.93333 27.4667 2 23C3.93333 18.5333 6.86667 14.9167 10.8 12.15C14.7333 9.38333 19.1333 8 24 8C28.8667 8 33.2667 9.38333 37.2 12.15C41.1333 14.9167 44.0667 18.5333 46 23C44.0667 27.4667 41.1333 31.0833 37.2 33.85C33.2667 36.6167 28.8667 38 24 38ZM23.9916 35C28.0305 35 31.7417 33.9083 35.125 31.725C38.5083 29.5417 41.0833 26.6333 42.85 23C41.0833 19.3667 38.5112 16.4583 35.1334 14.275C31.7557 12.0917 28.0474 11 24.0085 11C19.9695 11 16.2583 12.0917 12.875 14.275C9.49167 16.4583 6.9 19.3667 5.1 23C6.9 26.6333 9.48885 29.5417 12.8665 31.725C16.2443 33.9083 19.9526 35 23.9916 35Z" fill="#1C1B1F"/>
</g>
</g>
</svg>
