<svg width="48" height="48" viewBox="0 0 48 48" fill="none" xmlns="http://www.w3.org/2000/svg">
<g id="icon-camping">
<g id="Vector">
<path d="M15.6667 13.1C15.6667 15.9167 13.4281 18.2 10.6667 18.2C7.90524 18.2 5.66667 15.9167 5.66667 13.1C5.66667 10.2833 7.90524 8 10.6667 8C13.4281 8 15.6667 10.2833 15.6667 13.1Z" fill="#E15637"/>
<path d="M4 42L2.89594 41.4139C2.69025 41.8013 2.7027 42.2682 2.92875 42.6441C3.15479 43.0201 3.56134 43.25 4 43.25V42ZM14.8303 21.6V20.35C14.3678 20.35 13.9431 20.6054 13.7262 21.0139L14.8303 21.6ZM28.1697 21.6L29.2738 21.0139C29.0569 20.6054 28.6322 20.35 28.1697 20.35V21.6ZM39 42V43.25C39.4387 43.25 39.8452 43.0201 40.0713 42.6441C40.2973 42.2682 40.3097 41.8013 40.1041 41.4139L39 42ZM44 20.6579C44.6904 20.6579 45.25 20.0983 45.25 19.4079C45.25 18.7175 44.6904 18.1579 44 18.1579V20.6579ZM38.1667 8L39.4051 7.83038C39.3203 7.21135 38.7915 6.75 38.1667 6.75C37.5419 6.75 37.013 7.21135 36.9282 7.83038L38.1667 8ZM44 14.5737C44.6904 14.5737 45.25 14.014 45.25 13.3237C45.25 12.6333 44.6904 12.0737 44 12.0737V14.5737ZM32.3333 12.0737C31.643 12.0737 31.0833 12.6333 31.0833 13.3237C31.0833 14.014 31.643 14.5737 32.3333 14.5737V12.0737ZM32.3333 18.1579C31.643 18.1579 31.0833 18.7175 31.0833 19.4079C31.0833 20.0983 31.643 20.6579 32.3333 20.6579V18.1579ZM44 26.7421C44.6904 26.7421 45.25 26.1825 45.25 25.4921C45.25 24.8018 44.6904 24.2421 44 24.2421V26.7421ZM32.3333 24.2421C31.643 24.2421 31.0833 24.8018 31.0833 25.4921C31.0833 26.1825 31.643 26.7421 32.3333 26.7421V24.2421ZM5.10406 42.5861L15.9343 22.1861L13.7262 21.0139L2.89594 41.4139L5.10406 42.5861ZM27.0657 22.1861L37.8959 42.5861L40.1041 41.4139L29.2738 21.0139L27.0657 22.1861ZM14.8303 22.85H28.1697V20.35H14.8303V22.85ZM39 40.75H27.3359V43.25H39V40.75ZM13.7646 22.2533L26.2702 42.6533L28.4016 41.3467L15.896 20.9467L13.7646 22.2533ZM4 43.25H14.8303V40.75H4V43.25ZM14.8303 43.25H27.3359V40.75H14.8303V43.25ZM13.5803 21.6V42H16.0803V21.6H13.5803ZM36.9167 14.0842V20.1684H39.4167V14.0842H36.9167ZM36.9167 20.1684V42H39.4167V20.1684H36.9167ZM36.9282 14.2538C37.0255 14.964 37.388 15.7009 37.8024 16.3427C38.2342 17.0114 38.7984 17.6931 39.4264 18.306C40.0532 18.9179 40.7717 19.4887 41.5229 19.9136C42.2596 20.3303 43.1182 20.6579 44 20.6579V18.1579C43.7151 18.1579 43.2916 18.0419 42.7538 17.7376C42.2305 17.4416 41.682 17.0142 41.1726 16.517C40.6643 16.0209 40.2228 15.4825 39.9027 14.9866C39.5651 14.4639 39.4294 14.0917 39.4051 13.9146L36.9282 14.2538ZM36.9282 8.16962C37.0255 8.87978 37.388 9.61667 37.8024 10.2585C38.2342 10.9272 38.7984 11.6088 39.4264 12.2218C40.0532 12.8337 40.7717 13.4045 41.5229 13.8294C42.2596 14.2461 43.1182 14.5737 44 14.5737V12.0737C43.7151 12.0737 43.2916 11.9576 42.7538 11.6534C42.2305 11.3574 41.682 10.93 41.1726 10.4328C40.6643 9.93666 40.2228 9.39828 39.9027 8.90241C39.5651 8.37971 39.4294 8.0075 39.4051 7.83038L36.9282 8.16962ZM36.9282 7.83038C36.904 8.0075 36.7682 8.37971 36.4307 8.90241C36.1105 9.39828 35.669 9.93666 35.1607 10.4328C34.6513 10.93 34.1028 11.3574 33.5796 11.6534C33.0417 11.9576 32.6182 12.0737 32.3333 12.0737V14.5737C33.2151 14.5737 34.0738 14.2461 34.8104 13.8294C35.5617 13.4045 36.2801 12.8337 36.907 12.2218C37.535 11.6088 38.0991 10.9272 38.5309 10.2585C38.9454 9.61667 39.3078 8.87979 39.4051 8.16962L36.9282 7.83038ZM36.9282 13.9146C36.904 14.0917 36.7682 14.4639 36.4307 14.9866C36.1105 15.4825 35.669 16.0209 35.1607 16.517C34.6513 17.0142 34.1028 17.4416 33.5796 17.7376C33.0417 18.0419 32.6182 18.1579 32.3333 18.1579V20.6579C33.2151 20.6579 34.0738 20.3303 34.8104 19.9136C35.5617 19.4887 36.2801 18.9179 36.907 18.306C37.535 17.6931 38.0991 17.0114 38.5309 16.3427C38.9454 15.7009 39.3078 14.964 39.4051 14.2538L36.9282 13.9146ZM39.4167 14.0842V8H36.9167V14.0842H39.4167ZM36.9282 20.3381C37.0255 21.0482 37.388 21.7851 37.8024 22.427C38.2342 23.0957 38.7984 23.7773 39.4264 24.3903C40.0532 25.0021 40.7717 25.5729 41.5229 25.9978C42.2596 26.4145 43.1182 26.7421 44 26.7421V24.2421C43.7151 24.2421 43.2916 24.1261 42.7538 23.8218C42.2305 23.5258 41.682 23.0985 41.1726 22.6012C40.6643 22.1051 40.2228 21.5667 39.9027 21.0708C39.5652 20.5482 39.4294 20.1759 39.4051 19.9988L36.9282 20.3381ZM36.9282 19.9988C36.904 20.1759 36.7682 20.5481 36.4307 21.0708C36.1105 21.5667 35.669 22.1051 35.1607 22.6012C34.6513 23.0985 34.1028 23.5258 33.5796 23.8218C33.0417 24.1261 32.6182 24.2421 32.3333 24.2421V26.7421C33.2151 26.7421 34.0738 26.4145 34.8104 25.9978C35.5617 25.5729 36.2801 25.0021 36.907 24.3903C37.535 23.7773 38.0991 23.0957 38.5309 22.427C38.9454 21.7851 39.3078 21.0482 39.4051 20.3381L36.9282 19.9988ZM14.4167 13.1C14.4167 15.2497 12.7145 16.95 10.6667 16.95V19.45C14.1417 19.45 16.9167 16.5836 16.9167 13.1H14.4167ZM10.6667 16.95C8.61882 16.95 6.91667 15.2497 6.91667 13.1H4.41667C4.41667 16.5836 7.19167 19.45 10.6667 19.45V16.95ZM6.91667 13.1C6.91667 10.9503 8.61882 9.25 10.6667 9.25V6.75C7.19167 6.75 4.41667 9.61644 4.41667 13.1H6.91667ZM10.6667 9.25C12.7145 9.25 14.4167 10.9503 14.4167 13.1H16.9167C16.9167 9.61644 14.1417 6.75 10.6667 6.75V9.25Z" fill="black"/>
</g>
</g>
</svg>
