<svg width="20" height="20" viewBox="0 0 20 20" fill="none" xmlns="http://www.w3.org/2000/svg">
<g id="icon-search">
<path id="Vector" d="M15.3788 16.458L11.1364 12.2095C10.7576 12.513 10.322 12.7532 9.82955 12.9302C9.33713 13.1072 8.81314 13.1957 8.25759 13.1957C6.88132 13.1957 5.71668 12.7186 4.76365 11.7642C3.81011 10.8093 3.33334 9.64272 3.33334 8.2645C3.33334 6.88628 3.81011 5.71972 4.76365 4.76483C5.71668 3.81044 6.88132 3.33325 8.25759 3.33325C9.63385 3.33325 10.7987 3.81044 11.7523 4.76483C12.7053 5.71972 13.1818 6.88628 13.1818 8.2645C13.1818 8.82084 13.0934 9.34558 12.9167 9.8387C12.7399 10.3318 12.5 10.7681 12.197 11.1474L16.4583 15.4148C16.5972 15.5539 16.6667 15.7246 16.6667 15.9269C16.6667 16.1292 16.5909 16.3062 16.4394 16.458C16.3005 16.597 16.1237 16.6666 15.9091 16.6666C15.6945 16.6666 15.5177 16.597 15.3788 16.458ZM8.25759 11.6784C9.20455 11.6784 10.0096 11.3467 10.6727 10.6831C11.3354 10.019 11.6667 9.21281 11.6667 8.2645C11.6667 7.31618 11.3354 6.50999 10.6727 5.84591C10.0096 5.18234 9.20455 4.85056 8.25759 4.85056C7.31062 4.85056 6.50556 5.18234 5.84243 5.84591C5.17981 6.50999 4.84849 7.31618 4.84849 8.2645C4.84849 9.21281 5.17981 10.019 5.84243 10.6831C6.50556 11.3467 7.31062 11.6784 8.25759 11.6784Z" fill="#AEB1CF"/>
</g>
</svg>
