<svg width="48" height="48" viewBox="0 0 48 48" fill="none" xmlns="http://www.w3.org/2000/svg">
<g id="icon-hanok">
<g id="Vector">
<path d="M24 40.6H28.1905V31.5333H19.8095V40.6H24Z" fill="#E15637"/>
<path d="M42.8571 16.8H5.14286M42.8571 16.8C42.8571 16.8 35 12.2667 30.2857 6.60001H18.7619C14.0476 12.2667 5.14286 16.8 5.14286 16.8M42.8571 16.8C43.9048 16.8 46 16.3467 46 14.5333M5.14286 16.8C4.09524 16.8 2 16.3467 2 14.5333M28.1905 40.6H32.381H42.8571V25.8667H5.14286V40.6H15.619H19.8095M28.1905 40.6H24H19.8095M28.1905 40.6V31.5333H19.8095V40.6M12.4762 16.8H35.5238V25.8667H12.4762V16.8Z" stroke="black" stroke-width="2.5" stroke-linecap="round" stroke-linejoin="round"/>
</g>
</g>
</svg>
