<svg width="48" height="48" viewBox="0 0 48 48" fill="none" xmlns="http://www.w3.org/2000/svg">
<g id="icon-house">
<g id="Polygon 2">
<path d="M19.9634 42H27.1483V29.7073H19.9634V42Z" fill="#E15637"/>
<path d="M34.3328 42L34.3331 21.8049L30.7407 16.5366M34.3328 42H12.7786M34.3328 42H44V16.5366M12.7786 42V21.8049L16.371 16.5366M12.7786 42H4V16.5366M19.9634 11.2683L23.5559 6L27.1483 11.2683M19.9634 11.2683H9.26829C6.3587 11.2683 4 13.627 4 16.5366V16.5366M19.9634 11.2683L16.371 16.5366M27.1483 11.2683H38.7317C41.6413 11.2683 44 13.627 44 16.5366V16.5366M27.1483 11.2683L30.7407 16.5366M30.7407 16.5366H44M16.371 16.5366H4M19.9634 29.7073H27.1483V42H19.9634V29.7073Z" stroke="black" stroke-width="2.5" stroke-linecap="round" stroke-linejoin="round"/>
</g>
</g>
</svg>
