<svg width="48" height="48" viewBox="0 0 48 48" fill="none" xmlns="http://www.w3.org/2000/svg">
<g id="icon-building">
<g id="Vector">
<path fill-rule="evenodd" clip-rule="evenodd" d="M17.4545 19.0909H6V42H17.4545V19.0909ZM15.8182 24H10.9091V30.5455H15.8182V24Z" fill="#E15637"/>
<path d="M17.4545 19.0909H6V42H17.4545M17.4545 19.0909V6H42V42H32.1818M17.4545 19.0909V42M17.4545 42H27.2727M32.1818 42V35.4545H27.2727V42M32.1818 42H27.2727M10.9091 24H15.8182V30.5455H10.9091V24ZM22.3636 10.9091H27.2727V17.4545H22.3636V10.9091ZM32.1818 10.9091H37.0909V17.4545H32.1818V10.9091ZM32.1818 22.3636H37.0909V28.9091H32.1818V22.3636ZM22.3636 22.3636H27.2727V28.9091H22.3636V22.3636Z" stroke="black" stroke-width="2.5" stroke-linecap="round" stroke-linejoin="round"/>
</g>
</g>
</svg>
