<svg width="48" height="48" viewBox="0 0 48 48" fill="none" xmlns="http://www.w3.org/2000/svg">
<g id="icon-popular">
<path id="Ellipse 6" fill-rule="evenodd" clip-rule="evenodd" d="M37 28.3488C37 35.3359 31.1797 41 24 41C16.8203 41 11 35.3359 11 28.3488C11 25.2227 13.2722 19.0389 16.6875 14.907C19.9375 17.2791 20.75 18.0698 20.75 18.0698L25.625 7C25.625 7 37 21.3618 37 28.3488ZM24 37.0465C26.6354 37.0465 29.4533 35.049 28.7718 31.7197C28.0902 28.3905 24 24.3953 24 24.3953C24 24.3953 19.9101 28.3905 19.2283 31.7197C18.5465 35.049 21.3647 37.0465 24 37.0465Z" fill="#E15637" stroke="black" stroke-width="2.5" stroke-linecap="round" stroke-linejoin="round"/>
</g>
</svg>
