<svg width="48" height="48" viewBox="0 0 48 48" fill="none" xmlns="http://www.w3.org/2000/svg">
<g id="-countryside">
<g id="Vector">
<path d="M30.9499 11.4872L39.0473 20.641V26.0095C35.6285 25.8625 31.0414 26.2709 26.6807 28.0316C25.781 27.118 24.433 26.3847 22.8526 25.8001V20.641L30.9499 11.4872Z" fill="#E15637"/>
<path d="M13.95 14.2402L13.95 23.6923M13.95 14.2402C14.1979 16.0603 17.52 19.7004 19.9 19.7004M13.95 14.2402C13.7021 16.0603 10.38 19.7004 8 19.7004M13.95 14.2402L13.95 8M13.95 8C14.1979 9.82006 17.52 13.4602 19.9 13.4602M13.95 8C13.7021 9.82006 10.38 13.4602 8 13.4602M8.85 23.6923C12.1838 23.6923 18.4288 24.1638 22.8526 25.8001M26.6807 28.0316C26.6871 28.0381 26.6936 28.0447 26.7 28.0513M26.6807 28.0316C23.5698 29.2876 20.5741 31.2319 18.2 34.1538M26.6807 28.0316C25.781 27.118 24.433 26.3847 22.8526 25.8001M26.6807 28.0316C31.0414 26.2709 35.6285 25.8625 39.0473 26.0095M42 26.3077C41.1764 26.1669 40.1754 26.0579 39.0473 26.0095M8.85 33.2821C13.1 32.7009 22.7926 34.7654 28.4 37.641C35.2 41.1282 39.1667 42 42 42M30.1 21.0769V26.3077M22.8526 25.8001V20.641L30.9499 11.4872L39.0473 20.641V26.0095" stroke="black" stroke-width="2.5" stroke-linecap="round" stroke-linejoin="round"/>
</g>
</g>
</svg>
